<?xml version="1.0" standalone="no"?><!DOCTYPE svg PUBLIC "-//W3C//DTD SVG 1.1//EN" "http://www.w3.org/Graphics/SVG/1.1/DTD/svg11.dtd"><svg t="1533721064266" class="icon" style="" viewBox="0 0 1024 1024" version="1.1" xmlns="http://www.w3.org/2000/svg" p-id="1036" xmlns:xlink="http://www.w3.org/1999/xlink" width="200" height="200"><defs><style type="text/css"></style></defs><path d="M882.825003 646.781462c12.787069-12.787069 12.787069-38.361207 0-57.541811-12.787069-12.787069-38.361207-12.787069-57.541811 0l-300.496123 300.496124c-95.903018 76.722414-230.167243 70.32888-313.283192-19.180604C128.387928 781.045688 121.994393 646.781462 192.323273 550.878444l434.760349-447.547418c57.541811-38.361207 140.65776-25.574138 191.806036 25.574139 51.148276 51.148276 57.541811 134.264225 19.180603 191.806036L448.064655 710.716808c0 6.393535-6.393535 6.393535-6.393535 6.393534-19.180604 19.180604-57.541811 19.180604-76.722414 0-19.180604-19.180604-19.180604-57.541811 0-76.722414l6.393534-6.393535L678.231898 320.711201h6.393535c12.787069-12.787069 12.787069-38.361207 0-57.541811-12.787069-12.787069-38.361207-12.787069-57.541811 0L320.193964 576.452582l-6.393535 6.393535c-51.148276 51.148276-51.148276 140.65776 0 191.806036 51.148276 51.148276 134.264225 51.148276 185.412502 0l6.393534-6.393535L895.612072 371.859477c70.32888-89.509484 63.935345-223.773709-19.180603-306.889658S665.444829-18.14613 569.541811 45.789216l-434.760349 447.547417c-102.296553 127.870691-95.903018 313.283192 19.180604 434.760349 115.083622 115.083622 300.496123 121.477156 421.973279 19.180604l306.889658-300.496124z" fill="#333333" p-id="1037"></path></svg>